<svg xmlns="http://www.w3.org/2000/svg" xmlns:xlink="http://www.w3.org/1999/xlink" width="500" zoomAndPan="magnify" viewBox="0 0 375 374.999991" height="500" preserveAspectRatio="xMidYMid meet" version="1.0"><defs><clipPath id="601d7c838f"><path d="M 132 75.148438 L 243 75.148438 L 243 192 L 132 192 Z M 132 75.148438 " clip-rule="nonzero"/></clipPath><clipPath id="4080dfcf1b"><path d="M 85.121094 192 L 289.871094 192 L 289.871094 300 L 85.121094 300 Z M 85.121094 192 " clip-rule="nonzero"/></clipPath></defs><rect x="-37.5" width="450" fill="#ffffff" y="-37.499999" height="449.999989" fill-opacity="1"/><rect x="-37.5" width="450" fill="#49aa27" y="-37.499999" height="449.999989" fill-opacity="1"/><g clip-path="url(#601d7c838f)"><path fill="#ffffff" d="M 187.496094 191.703125 C 217.574219 191.703125 242.042969 159.777344 242.042969 129.699219 C 242.042969 99.625 217.574219 75.148438 187.496094 75.148438 C 157.417969 75.148438 132.949219 99.625 132.949219 129.699219 C 132.953125 159.773438 157.417969 191.703125 187.496094 191.703125 Z M 187.496094 191.703125 " fill-opacity="1" fill-rule="nonzero"/></g><g clip-path="url(#4080dfcf1b)"><path fill="#ffffff" d="M 228.445312 192.261719 C 217.863281 200.324219 204.664062 205.117188 190.367188 205.117188 L 184.625 205.117188 C 170.324219 205.117188 157.121094 200.320312 146.542969 192.261719 C 111.996094 197.847656 85.613281 227.789062 85.613281 263.910156 C 85.613281 283.753906 131.226562 299.84375 187.496094 299.84375 C 243.761719 299.84375 289.378906 283.753906 289.378906 263.910156 C 289.378906 227.789062 262.992188 197.847656 228.445312 192.261719 Z M 228.445312 192.261719 " fill-opacity="1" fill-rule="nonzero"/></g></svg>