<svg width="902" height="682" viewBox="0 0 902 682" fill="none" xmlns="http://www.w3.org/2000/svg">
<g clip-path="url(#clip0_7_2)">
<path d="M827.9 679.972C840.442 679.983 852.683 676.123 862.949 668.917C873.215 661.711 881.006 651.512 885.258 639.712C903.941 587.665 920.402 491.254 847.251 386.969C766.366 271.662 604.56 152.459 490.751 140.247C312.451 121.125 262.617 329.009 182.615 377.385C113.493 419.181 13.394 481.856 0.310004 612.848C-0.491299 620.821 0.285657 628.874 2.59651 636.547C4.90737 644.219 8.70686 651.362 13.7781 657.566C18.8493 663.771 25.0929 668.915 32.1523 672.707C39.2118 676.498 46.949 678.862 54.922 679.663C56.9393 679.863 58.963 679.965 60.993 679.969L827.9 679.972Z" fill="#F3FDF5"/>
<path d="M818.22 675.585C838.026 669.447 857.242 661.426 874.751 638.976C878.344 634.376 881.721 628.482 879.751 622.976C878.269 618.833 873.982 616.176 869.627 615.5C868.005 615.264 866.36 615.219 864.727 615.366C864.719 615.366 864.711 615.366 864.708 615.366C862.198 615.623 859.716 616.11 857.295 616.82L856.603 617.02C845.047 620.304 834.039 625.275 823.935 631.774C823.019 632.357 821.933 632.614 820.853 632.502C819.773 632.39 818.763 631.916 817.987 631.157C817.211 630.398 816.714 629.398 816.577 628.321C816.441 627.244 816.673 626.153 817.235 625.224C818.266 623.54 819.466 621.965 820.815 620.524C822.806 618.443 824.987 616.552 827.329 614.875C830.443 612.604 833.765 610.575 837.016 608.502C849.102 600.805 860.552 592.152 871.256 582.627C878.896 575.821 886.368 568.268 889.999 558.699C891.668 554.299 892.427 549.226 890.437 544.962C887.153 537.962 877.85 535.999 870.243 537.452C856.913 540.005 846.265 549.777 836.822 559.516C828.991 567.609 820.216 576.57 808.965 577.067C807.047 577.247 805.119 576.86 803.418 575.955C800.209 574.011 799.384 569.507 800.528 565.931C801.672 562.355 804.319 559.497 806.874 556.753C821.725 540.821 836.339 524.247 845.982 504.724C855.625 485.201 859.897 462.153 853.196 441.424C851.232 435.364 848.279 429.468 843.674 425.066C839.069 420.664 832.611 417.904 826.289 418.747C817.676 419.881 811.189 427.147 806.825 434.655C791.825 460.408 792.742 491.963 788.517 521.463C787.335 529.722 785.617 538.192 780.697 544.99C780.244 545.644 779.655 546.193 778.971 546.6C774.923 548.944 771.291 544.217 769.771 540.206C763.771 524.338 762.271 506.19 751.529 493.056C747.429 488.056 741.629 483.877 735.164 483.918C727.269 483.972 720.509 490.566 718.205 498.118C715.901 505.67 717.28 513.875 719.748 521.374C724.33 535.28 732.542 547.774 742.22 558.753C747.32 564.553 753.09 570.408 754.62 577.972C755.089 580.543 754.893 583.191 754.051 585.664C753.208 588.138 751.747 590.355 749.807 592.105C748.9 592.895 747.844 593.494 746.701 593.868C745.558 594.242 744.351 594.382 743.153 594.281C740.561 594.044 738.217 592.722 735.953 591.437C735.004 590.897 734.053 590.349 733.096 589.812C729.323 587.664 725.549 585.513 721.774 583.359C712.174 577.885 700.593 572.292 690.599 577.006C685.499 579.416 682.158 584.155 680.586 589.592C679.179 594.527 679.179 599.757 680.586 604.692C683.563 614.955 702.327 643.514 710.066 650.879C719.107 659.48 750.452 696.588 818.22 675.585Z" fill="#49AA27"/>
<path d="M625.931 0V470.104H625.375L595.396 440.125L565.408 470.104H563.341L533.362 440.125L503.374 470.104H503.235L472.237 439.106L441.247 470.104H441.201L410.202 439.106L379.204 470.104H379L348.001 439.106L317.012 470.104H316.956L285.967 439.106L255.423 469.65V0H625.931Z" fill="#DEF5DE"/>
<path d="M455.646 111.772H295.68V125.919H455.646V111.772Z" fill="white"/>
<path d="M404.501 68.321H295.68V82.468H404.501V68.321Z" fill="white"/>
<path d="M429.529 155.222H295.68V169.369H429.529V155.222Z" fill="white"/>
<path d="M394.707 198.673H295.68V212.82H394.707V198.673Z" fill="white"/>
<path d="M440.68 242.123H295.68V256.27H440.68V242.123Z" fill="white"/>
<path d="M420.824 285.574H295.68V299.721H420.824V285.574Z" fill="white"/>
<path d="M404.501 329.024H295.68V343.171H404.501V329.024Z" fill="white"/>
<path d="M384.913 372.475H295.68V386.622H384.913V372.475Z" fill="white"/>
<path d="M584.054 111.772H525.291V125.919H584.054V111.772Z" fill="white"/>
<path d="M584.054 68.321H525.291V82.468H584.054V68.321Z" fill="white"/>
<path d="M584.054 155.222H525.291V169.369H584.054V155.222Z" fill="white"/>
<path d="M584.054 198.673H525.291V212.82H584.054V198.673Z" fill="white"/>
<path d="M584.054 242.123H525.291V256.27H584.054V242.123Z" fill="white"/>
<path d="M584.054 285.574H525.291V299.721H584.054V285.574Z" fill="white"/>
<path d="M584.054 329.024H525.291V343.171H584.054V329.024Z" fill="white"/>
<path d="M584.054 372.475H525.291V386.622H584.054V372.475Z" fill="white"/>
<path d="M625.931 509.145C671.763 509.145 708.918 471.99 708.918 426.158C708.918 380.326 671.763 343.171 625.931 343.171C580.099 343.171 542.944 380.326 542.944 426.158C542.944 471.99 580.099 509.145 625.931 509.145Z" fill="#49AA27"/>
<path d="M611.7 471.468C609.971 471.468 608.307 470.807 607.049 469.62L575.526 439.876C574.255 438.634 573.522 436.943 573.485 435.166C573.449 433.389 574.112 431.669 575.331 430.376C576.55 429.083 578.229 428.321 580.005 428.254C581.781 428.186 583.512 428.819 584.826 430.016L611.326 455.016L666.665 394.036C667.877 392.721 669.56 391.939 671.347 391.86C673.133 391.78 674.879 392.41 676.203 393.612C677.527 394.814 678.323 396.49 678.416 398.276C678.51 400.062 677.894 401.812 676.703 403.146L616.72 469.246C616.114 469.913 615.382 470.453 614.565 470.834C613.749 471.215 612.864 471.429 611.964 471.464C611.876 471.466 611.788 471.468 611.7 471.468Z" fill="white"/>
<path d="M196.405 669.152L175.551 666.673C176.49 658.78 177.551 649.299 177.623 647.745C177.623 647.845 177.623 647.926 177.623 647.989H198.623C198.619 648.619 198.619 650.535 196.405 669.152Z" fill="#E98862"/>
<path d="M112.729 671.663L91.729 671.594C91.729 671.594 91.799 649.91 91.799 647.989H112.799C112.8 649.916 112.729 671.663 112.729 671.663Z" fill="#E98862"/>
<path d="M167.158 662.521L204.152 661.891C202.614 622.928 202.352 578.363 201.939 538.036C201.825 528.041 201.07 518.063 199.679 508.164C193.727 465.441 189.845 422.964 181.831 380.485L181.564 380.564L180.782 375.234L104.705 370.539L100.745 420.244C100.745 420.244 90.836 592.191 86.317 661.329L123.185 664.444C129.828 596.658 140.109 497.888 146.431 426.677C153.692 461.347 158.631 497.245 164.945 531.618C166.209 574.644 167.275 619.623 167.158 662.521Z" fill="#262626"/>
<path d="M138.258 679.785C138.823 679.782 139.381 679.663 139.897 679.435C140.414 679.207 140.878 678.875 141.261 678.46C141.643 678.044 141.936 677.554 142.121 677.021C142.305 676.487 142.378 675.921 142.334 675.358C142.273 674.578 141.991 673.831 141.52 673.205C141.049 672.58 140.409 672.103 139.675 671.829L115.233 663.642C114.759 663.485 114.258 663.433 113.762 663.488C113.266 663.543 112.788 663.704 112.36 663.961C109 666.293 104.981 667.485 100.893 667.361C97.7088 667.135 94.6522 666.019 92.072 664.139C91.8452 663.953 91.5703 663.836 91.2793 663.8C90.9883 663.765 90.6932 663.813 90.4284 663.939C90.1636 664.064 89.94 664.263 89.7836 664.511C89.6272 664.759 89.5445 665.046 89.545 665.339V677.291C89.545 677.644 89.6147 677.993 89.7499 678.318C89.8852 678.644 90.0835 678.94 90.3333 679.189C90.5831 679.437 90.8797 679.634 91.2058 679.768C91.532 679.902 91.8814 679.97 92.234 679.969L138.258 679.785Z" fill="#292A2E"/>
<path d="M221.991 679.785C222.556 679.782 223.114 679.664 223.631 679.436C224.147 679.208 224.611 678.875 224.994 678.46C225.376 678.044 225.669 677.555 225.854 677.021C226.038 676.487 226.111 675.921 226.067 675.358C226.006 674.578 225.724 673.831 225.253 673.206C224.782 672.58 224.142 672.103 223.409 671.829L198.966 663.642C198.493 663.485 197.991 663.433 197.495 663.488C197 663.543 196.522 663.704 196.094 663.961C192.734 666.293 188.714 667.485 184.626 667.361C181.442 667.135 178.386 666.019 175.806 664.139C175.579 663.953 175.304 663.835 175.013 663.8C174.722 663.764 174.427 663.812 174.162 663.938C173.897 664.063 173.673 664.262 173.516 664.51C173.36 664.758 173.277 665.046 173.278 665.339V677.291C173.278 677.644 173.348 677.993 173.483 678.318C173.618 678.644 173.816 678.94 174.066 679.189C174.316 679.437 174.613 679.634 174.939 679.768C175.265 679.902 175.614 679.971 175.967 679.969L221.991 679.785Z" fill="#292A2E"/>
<path d="M204.633 294.645C204.633 294.645 215.077 285.245 215.659 282.057C216.241 278.869 208.125 273.191 208.125 273.191C208.125 273.191 210.204 270.818 212.216 268.139C214.539 265.047 216.773 261.546 215.625 260.809C214.517 260.098 211.787 262.729 209.066 265.909C205.566 269.999 202.092 275.002 202.092 275.002C202.092 275.002 203.443 269.471 201.32 269.246C200.447 269.154 199.82 270.046 198.702 273.967C197.433 278.437 194.763 285.212 194.763 285.212L204.633 294.645Z" fill="#E98862"/>
<path d="M183.731 346.787C185.9 346.787 188.02 346.14 189.819 344.929C191.618 343.717 193.015 341.997 193.831 339.987L213.431 291.721L193.231 283.521L187.29 298.13L182.632 274.851L161.251 279.129L173.036 338.023C173.496 340.322 174.684 342.412 176.426 343.982C178.167 345.551 180.368 346.518 182.702 346.738C183.046 346.771 183.39 346.787 183.731 346.787Z" fill="#49AA27"/>
<path d="M219.113 307.656L206.991 305.722C206.514 305.646 206.059 305.47 205.655 305.206C205.251 304.941 204.907 304.594 204.646 304.188C204.386 303.781 204.214 303.325 204.142 302.847C204.07 302.369 204.1 301.882 204.23 301.417L211.856 274.045C212.082 273.234 212.598 272.534 213.307 272.08C214.015 271.625 214.867 271.447 215.698 271.58L227.82 273.514C228.297 273.59 228.752 273.766 229.156 274.031C229.56 274.295 229.904 274.642 230.164 275.048C230.425 275.455 230.597 275.912 230.669 276.389C230.74 276.867 230.711 277.354 230.581 277.819L222.954 305.191C222.728 306.002 222.212 306.701 221.504 307.156C220.795 307.611 219.944 307.789 219.113 307.656Z" fill="#292A2E"/>
<path d="M199.592 300.482L206.741 310.182C206.741 310.182 225.956 306.33 227.759 291.527C227.967 289.827 227.787 285.106 225.676 285.739C220.176 287.387 213.331 295.827 208.532 296.949C209.627 294.988 210.963 292.219 210.101 291.712C207.835 290.381 201.741 298.417 199.592 300.482Z" fill="#E98862"/>
<path d="M102.948 270.017C107.519 265.447 115.409 262.497 125.028 262.487C125.749 268.097 159.809 268.117 160.068 262.617C161.368 262.637 162.378 262.657 163.008 262.687C186.126 263.687 186.058 282.316 183.784 302.908L202.805 294.518L211.605 314.468L181.332 327.819C181.312 328.419 181.296 329.019 181.29 329.619C180.899 362.079 189.669 368.199 185.349 378.119C181.16 387.749 98.83 391.749 97.73 374.809C97.03 364.029 106.53 354.619 106.53 333.609C106.53 312.599 87.2 285.767 102.948 270.017Z" fill="#49AA27"/>
<path d="M160.068 262.617C159.809 268.117 156.818 276.207 147.588 276.817C135.288 277.627 125.749 268.097 125.028 262.487H125.059C137.169 262.487 153.008 262.507 160.068 262.617Z" fill="#E98862"/>
<path d="M128.788 268.6C128.788 268.6 136.521 264.5 134.794 243.443L150.77 240.481C150.77 240.481 148.97 259.359 157.058 265.353L128.788 268.6Z" fill="#E98862"/>
<g opacity="0.15">
<path d="M153.784 261.406L140.512 251.253L150.936 251.145C151.238 254.713 152.204 258.193 153.784 261.406Z" fill="black"/>
</g>
<path d="M125.729 235.278C126.835 241.667 130.321 247.716 135.957 249.778C142.646 252.227 147.601 252.393 155.314 252.393C165.839 252.393 165.491 241.417 165.787 230.355C166.087 219.249 165.201 207.337 161.041 203.467C152.741 195.742 128.368 200.634 125.403 213.554C123.87 220.238 124.676 229.2 125.729 235.278Z" fill="#E98862"/>
<path d="M150.429 230.357C151.229 230.357 151.878 229.708 151.878 228.908C151.878 228.108 151.229 227.459 150.429 227.459C149.629 227.459 148.98 228.108 148.98 228.908C148.98 229.708 149.629 230.357 150.429 230.357Z" fill="#0F1011"/>
<path d="M161.86 229.42C162.66 229.42 163.309 228.771 163.309 227.971C163.309 227.171 162.66 226.522 161.86 226.522C161.06 226.522 160.411 227.171 160.411 227.971C160.411 228.771 161.06 229.42 161.86 229.42Z" fill="#0F1011"/>
<path d="M164.371 224.883H164.362L160.524 224.835C160.435 224.834 160.346 224.815 160.264 224.78C160.182 224.745 160.108 224.694 160.045 224.63C159.983 224.566 159.934 224.49 159.9 224.407C159.867 224.324 159.851 224.235 159.852 224.146C159.852 224.056 159.87 223.967 159.904 223.885C159.939 223.802 159.99 223.727 160.054 223.664C160.119 223.602 160.195 223.553 160.278 223.52C160.362 223.487 160.451 223.472 160.541 223.474L164.379 223.522C164.555 223.53 164.721 223.605 164.843 223.733C164.964 223.861 165.031 224.03 165.03 224.206C165.029 224.382 164.96 224.551 164.837 224.678C164.714 224.804 164.547 224.877 164.371 224.883Z" fill="#0F1011"/>
<path d="M147.3 226.283C147.133 226.283 146.973 226.221 146.849 226.11C146.724 225.999 146.645 225.847 146.625 225.682C146.606 225.516 146.648 225.349 146.743 225.213C146.838 225.076 146.98 224.979 147.142 224.94L150.926 224.029C151.013 224.007 151.104 224.002 151.194 224.015C151.283 224.028 151.368 224.059 151.446 224.106C151.523 224.152 151.59 224.214 151.643 224.286C151.697 224.359 151.735 224.442 151.756 224.529C151.777 224.617 151.781 224.708 151.766 224.797C151.752 224.886 151.72 224.971 151.673 225.048C151.625 225.125 151.563 225.191 151.489 225.243C151.416 225.296 151.333 225.333 151.245 225.353L147.46 226.264C147.408 226.276 147.354 226.283 147.3 226.283Z" fill="#0F1011"/>
<path d="M137.568 213.667C138.696 235.235 136.586 245.261 135.412 249.017C135.335 249.265 135.202 249.491 135.024 249.68C134.846 249.869 134.628 250.015 134.386 250.107C134.143 250.2 133.883 250.235 133.624 250.212C133.366 250.189 133.116 250.108 132.894 249.974C129.138 247.742 120.6 240.783 117.72 222.589C115.14 206.289 127.278 199.095 135.298 196.696C142.211 194.628 151.58 195.028 159.037 199.778C168.428 205.76 167.037 218.07 167.037 218.07C155.643 218.595 131.298 219.606 131.298 219.606" fill="#0F1011"/>
<path d="M142.891 232.454C142.969 233.264 142.885 234.082 142.644 234.86C142.403 235.637 142.01 236.359 141.487 236.983C140.965 237.607 140.323 238.122 139.6 238.496C138.878 238.87 138.087 239.097 137.276 239.163C136.465 239.23 135.648 239.134 134.874 238.882C134.1 238.63 133.384 238.227 132.767 237.695C132.15 237.164 131.645 236.516 131.281 235.788C130.917 235.059 130.702 234.266 130.647 233.454C130.567 232.647 130.65 231.833 130.891 231.059C131.133 230.285 131.527 229.568 132.052 228.95C132.576 228.332 133.22 227.825 133.944 227.461C134.668 227.097 135.458 226.882 136.267 226.83C140.645 226.691 142.614 229.073 142.891 232.454Z" fill="#E98862"/>
<g opacity="0.15">
<path d="M156.861 236.945C156.741 236.945 156.625 236.902 156.535 236.824C156.444 236.746 156.384 236.638 156.366 236.519C156.348 236.401 156.374 236.28 156.438 236.179C156.501 236.077 156.6 236.002 156.714 235.967L159.661 235.062L157.6 230.472C157.548 230.351 157.545 230.215 157.592 230.092C157.64 229.97 157.734 229.871 157.854 229.817C157.974 229.763 158.11 229.758 158.233 229.804C158.356 229.85 158.457 229.943 158.512 230.062L160.805 235.169C160.834 235.234 160.849 235.304 160.849 235.375C160.849 235.446 160.834 235.516 160.805 235.58C160.775 235.645 160.733 235.702 160.68 235.749C160.626 235.796 160.564 235.831 160.496 235.852L157.008 236.923C156.96 236.938 156.911 236.945 156.861 236.945Z" fill="black"/>
</g>
<path d="M151.1 240.32C151.1 240.32 156.449 240.884 160.2 239.574C160.2 239.574 160.17 243.097 155.938 243.444C151.706 243.791 151.1 240.32 151.1 240.32Z" fill="white"/>
</g>
<defs>
<clipPath id="clip0_7_2">
<rect width="901.189" height="681.934" fill="white"/>
</clipPath>
</defs>
</svg>
