<svg xmlns="http://www.w3.org/2000/svg" xmlns:xlink="http://www.w3.org/1999/xlink" width="459" zoomAndPan="magnify" viewBox="0 0 344.25 159.749995" height="213" preserveAspectRatio="xMidYMid meet" version="1.0"><defs><g/><clipPath id="0ef396b89e"><path d="M 0 33.253906 L 78.578125 33.253906 L 78.578125 111.835938 L 0 111.835938 Z M 0 33.253906 " clip-rule="nonzero"/></clipPath><clipPath id="0377d6f912"><path d="M 0 33.253906 L 69 33.253906 L 69 111.835938 L 0 111.835938 Z M 0 33.253906 " clip-rule="nonzero"/></clipPath><clipPath id="a1cf8342f2"><path d="M 9 33.253906 L 78.578125 33.253906 L 78.578125 111.835938 L 9 111.835938 Z M 9 33.253906 " clip-rule="nonzero"/></clipPath></defs><g fill="#49aa27" fill-opacity="1"><g transform="translate(92.727143, 99.484045)"><g><path d="M 3.625 -56.96875 L 18.640625 -56.96875 L 18.640625 -13.078125 L 38.671875 -13.078125 L 38.671875 0 L 3.625 0 Z M 3.625 -56.96875 "/></g></g></g><g fill="#49aa27" fill-opacity="1"><g transform="translate(136.102749, 99.484045)"><g><path d="M 3.578125 0 L 3.578125 -35.4375 L 18.8125 -35.4375 L 18.8125 0 Z M 11.390625 -40.875 C 9.066406 -40.875 7.085938 -41.691406 5.453125 -43.328125 C 3.828125 -44.972656 3.015625 -46.929688 3.015625 -49.203125 C 3.015625 -51.472656 3.828125 -53.441406 5.453125 -55.109375 C 7.085938 -56.785156 9.066406 -57.625 11.390625 -57.625 C 12.921875 -57.625 14.316406 -57.242188 15.578125 -56.484375 C 16.847656 -55.722656 17.867188 -54.707031 18.640625 -53.4375 C 19.421875 -52.164062 19.8125 -50.753906 19.8125 -49.203125 C 19.8125 -46.929688 18.984375 -44.972656 17.328125 -43.328125 C 15.671875 -41.691406 13.691406 -40.875 11.390625 -40.875 Z M 11.390625 -40.875 "/></g></g></g><g fill="#49aa27" fill-opacity="1"><g transform="translate(159.754325, 99.484045)"><g><path d="M 29.390625 -36.46875 C 31.953125 -36.46875 34.441406 -35.960938 36.859375 -34.953125 C 39.273438 -33.953125 41.265625 -32.34375 42.828125 -30.125 C 44.398438 -27.914062 45.1875 -25.023438 45.1875 -21.453125 L 45.1875 0 L 29.875 0 L 29.875 -18.984375 C 29.875 -21.148438 29.351562 -22.8125 28.3125 -23.96875 C 27.28125 -25.132812 25.898438 -25.71875 24.171875 -25.71875 C 23.046875 -25.71875 21.992188 -25.429688 21.015625 -24.859375 C 20.035156 -24.285156 19.25 -23.476562 18.65625 -22.4375 C 18.070312 -21.40625 17.78125 -20.195312 17.78125 -18.8125 L 17.78125 0 L 2.5 0 L 2.5 -35.4375 L 17.78125 -35.4375 L 17.78125 -30.640625 C 18.15625 -31.597656 18.890625 -32.515625 19.984375 -33.390625 C 21.078125 -34.265625 22.441406 -34.992188 24.078125 -35.578125 C 25.722656 -36.171875 27.492188 -36.46875 29.390625 -36.46875 Z M 29.390625 -36.46875 "/></g></g></g><g fill="#49aa27" fill-opacity="1"><g transform="translate(208.438586, 99.484045)"><g><path d="M 28.4375 -35.4375 L 45.5 -35.4375 L 29.34375 -18.515625 L 47.390625 0 L 29.90625 0 L 17.3125 -13.6875 L 17.3125 0 L 2.03125 0 L 2.03125 -59.390625 L 17.3125 -59.390625 L 17.3125 -23.78125 Z M 28.4375 -35.4375 "/></g></g></g><g fill="#ffffff" fill-opacity="1"><g transform="translate(255.40397, 99.484045)"><g><path d="M 3.578125 0 L 3.578125 -35.4375 L 18.8125 -35.4375 L 18.8125 0 Z M 11.390625 -40.875 C 9.066406 -40.875 7.085938 -41.691406 5.453125 -43.328125 C 3.828125 -44.972656 3.015625 -46.929688 3.015625 -49.203125 C 3.015625 -51.472656 3.828125 -53.441406 5.453125 -55.109375 C 7.085938 -56.785156 9.066406 -57.625 11.390625 -57.625 C 12.921875 -57.625 14.316406 -57.242188 15.578125 -56.484375 C 16.847656 -55.722656 17.867188 -54.707031 18.640625 -53.4375 C 19.421875 -52.164062 19.8125 -50.753906 19.8125 -49.203125 C 19.8125 -46.929688 18.984375 -44.972656 17.328125 -43.328125 C 15.671875 -41.691406 13.691406 -40.875 11.390625 -40.875 Z M 11.390625 -40.875 "/></g></g></g><g fill="#ffffff" fill-opacity="1"><g transform="translate(279.055546, 99.484045)"><g><path d="M 0.265625 -35.4375 L 5.953125 -35.4375 L 5.953125 -49.984375 L 21.0625 -49.984375 L 21.0625 -35.4375 L 28.578125 -35.4375 L 28.578125 -22.96875 L 21.0625 -22.96875 L 21.0625 -16.0625 C 21.0625 -14.820312 21.226562 -13.757812 21.5625 -12.875 C 21.894531 -12 22.609375 -11.5625 23.703125 -11.5625 C 24.359375 -11.5625 24.945312 -11.710938 25.46875 -12.015625 C 25.988281 -12.316406 26.304688 -12.523438 26.421875 -12.640625 L 31.515625 -1.859375 C 31.285156 -1.679688 30.585938 -1.351562 29.421875 -0.875 C 28.253906 -0.40625 26.785156 0.0234375 25.015625 0.421875 C 23.242188 0.828125 21.28125 1.03125 19.125 1.03125 C 15.289062 1.03125 12.132812 -0.0234375 9.65625 -2.140625 C 7.1875 -4.253906 5.953125 -7.507812 5.953125 -11.90625 L 5.953125 -22.96875 L 0.265625 -22.96875 Z M 0.265625 -35.4375 "/></g></g></g><g clip-path="url(#0ef396b89e)"><path fill="#49aa27" d="M 62.386719 111.835938 L 16.191406 111.835938 C 7.25 111.835938 0 104.585938 0 95.640625 L 0 49.449219 C 0 40.503906 7.25 33.253906 16.191406 33.253906 L 62.386719 33.253906 C 71.328125 33.253906 78.578125 40.503906 78.578125 49.449219 L 78.578125 95.640625 C 78.578125 104.585938 71.328125 111.835938 62.386719 111.835938 Z M 62.386719 111.835938 " fill-opacity="1" fill-rule="nonzero"/></g><g clip-path="url(#0377d6f912)"><path stroke-linecap="butt" transform="matrix(0.208931, 0, 0, 0.208931, -0.000000000000058492, 33.255368)" fill="none" stroke-linejoin="miter" d="M 129.304301 68.197472 L 85.797778 148.704169 L 42.403435 229.098688 C 38.495887 236.20332 43.300862 245.196288 51.003778 245.196288 L 109.99092 245.196288 L 109.99092 301.603326 C 109.99092 307.904013 115.095037 313.101612 121.507902 313.101612 L 153.796584 313.101612 C 160.097271 313.101612 165.29487 307.997495 165.29487 301.603326 L 165.29487 245.196288 L 148.0007 245.196288 C 140.297784 245.196288 135.492809 236.20332 139.400356 229.098688 L 182.7947 148.704169 L 186.496587 141.89868 L 146.691952 68.197472 C 142.690923 61.09284 133.09967 61.09284 129.304301 68.197472 Z M 129.304301 68.197472 " stroke="#f3f6f6" stroke-width="10" stroke-opacity="1" stroke-miterlimit="10"/></g><g clip-path="url(#a1cf8342f2)"><path stroke-linecap="butt" transform="matrix(0.208931, 0, 0, 0.208931, -0.000000000000058492, 33.255368)" fill="none" stroke-linejoin="miter" d="M 330.309294 229.19217 L 286.896254 148.797651 L 243.408428 68.290954 C 239.594363 61.205018 230.00311 61.205018 226.095562 68.290954 L 186.403105 141.992162 L 190.104993 148.797651 L 233.499336 229.19217 C 237.406884 236.296802 232.601909 245.308466 224.898992 245.308466 L 207.006538 245.308466 L 207.006538 301.696808 C 207.006538 307.997495 212.091959 313.195094 218.504824 313.195094 L 250.793506 313.195094 C 257.094193 313.195094 262.291792 308.090977 262.291792 301.696808 L 262.291792 245.308466 L 321.895914 245.308466 C 329.393171 245.308466 334.198145 236.296802 330.309294 229.19217 Z M 330.309294 229.19217 " stroke="#f3f6f6" stroke-width="10" stroke-opacity="1" stroke-miterlimit="10"/></g></svg>