<svg xmlns="http://www.w3.org/2000/svg" xmlns:xlink="http://www.w3.org/1999/xlink" width="453" zoomAndPan="magnify" viewBox="0 0 339.75 159.750002" height="213" preserveAspectRatio="xMidYMid meet" version="1.0"><defs><g/><clipPath id="2cd601f786"><path d="M 0.140625 31.628906 L 78.765625 31.628906 L 78.765625 110.253906 L 0.140625 110.253906 Z M 0.140625 31.628906 " clip-rule="nonzero"/></clipPath><clipPath id="11fb348f6e"><path d="M 0.140625 31.628906 L 69 31.628906 L 69 110.253906 L 0.140625 110.253906 Z M 0.140625 31.628906 " clip-rule="nonzero"/></clipPath><clipPath id="a34a75d51f"><path d="M 9 31.628906 L 78.765625 31.628906 L 78.765625 110.253906 L 9 110.253906 Z M 9 31.628906 " clip-rule="nonzero"/></clipPath><clipPath id="e98a4c79bf"><path d="M 5.441406 40.320312 L 72.546875 40.320312 L 72.546875 104.257812 L 5.441406 104.257812 Z M 5.441406 40.320312 " clip-rule="nonzero"/></clipPath><clipPath id="8d3134376a"><path d="M 0.441406 0.320312 L 67.546875 0.320312 L 67.546875 64.257812 L 0.441406 64.257812 Z M 0.441406 0.320312 " clip-rule="nonzero"/></clipPath><clipPath id="bf7d5f0517"><rect x="0" width="68" y="0" height="65"/></clipPath><clipPath id="15c2299ded"><path d="M 23.441406 42.34375 L 54.890625 42.34375 L 54.890625 99.253906 L 23.441406 99.253906 Z M 23.441406 42.34375 " clip-rule="nonzero"/></clipPath></defs><g fill="#49aa27" fill-opacity="1"><g transform="translate(88.63835, 99.496071)"><g><path d="M 3.625 -57 L 18.65625 -57 L 18.65625 -13.078125 L 38.703125 -13.078125 L 38.703125 0 L 3.625 0 Z M 3.625 -57 "/></g></g></g><g fill="#49aa27" fill-opacity="1"><g transform="translate(132.040535, 99.496071)"><g><path d="M 3.578125 0 L 3.578125 -35.453125 L 18.828125 -35.453125 L 18.828125 0 Z M 11.40625 -40.90625 C 9.070312 -40.90625 7.085938 -41.722656 5.453125 -43.359375 C 3.828125 -45.003906 3.015625 -46.960938 3.015625 -49.234375 C 3.015625 -51.503906 3.828125 -53.472656 5.453125 -55.140625 C 7.085938 -56.816406 9.070312 -57.65625 11.40625 -57.65625 C 12.925781 -57.65625 14.316406 -57.269531 15.578125 -56.5 C 16.847656 -55.738281 17.875 -54.722656 18.65625 -53.453125 C 19.4375 -52.191406 19.828125 -50.785156 19.828125 -49.234375 C 19.828125 -46.960938 19 -45.003906 17.34375 -43.359375 C 15.6875 -41.722656 13.707031 -40.90625 11.40625 -40.90625 Z M 11.40625 -40.90625 "/></g></g></g><g fill="#49aa27" fill-opacity="1"><g transform="translate(155.706604, 99.496071)"><g><path d="M 29.40625 -36.5 C 31.96875 -36.5 34.457031 -35.992188 36.875 -34.984375 C 39.300781 -33.972656 41.296875 -32.359375 42.859375 -30.140625 C 44.429688 -27.921875 45.21875 -25.03125 45.21875 -21.46875 L 45.21875 0 L 29.890625 0 L 29.890625 -19 C 29.890625 -21.15625 29.367188 -22.816406 28.328125 -23.984375 C 27.296875 -25.148438 25.914062 -25.734375 24.1875 -25.734375 C 23.0625 -25.734375 22.007812 -25.445312 21.03125 -24.875 C 20.050781 -24.300781 19.265625 -23.492188 18.671875 -22.453125 C 18.085938 -21.421875 17.796875 -20.210938 17.796875 -18.828125 L 17.796875 0 L 2.5 0 L 2.5 -35.453125 L 17.796875 -35.453125 L 17.796875 -30.65625 C 18.171875 -31.613281 18.90625 -32.53125 20 -33.40625 C 21.09375 -34.28125 22.457031 -35.015625 24.09375 -35.609375 C 25.738281 -36.203125 27.507812 -36.5 29.40625 -36.5 Z M 29.40625 -36.5 "/></g></g></g><g fill="#49aa27" fill-opacity="1"><g transform="translate(204.420697, 99.496071)"><g><path d="M 28.453125 -35.453125 L 45.515625 -35.453125 L 29.375 -18.53125 L 47.421875 0 L 29.921875 0 L 17.3125 -13.6875 L 17.3125 0 L 2.03125 0 L 2.03125 -59.421875 L 17.3125 -59.421875 L 17.3125 -23.796875 Z M 28.453125 -35.453125 "/></g></g></g><g fill="#ffffff" fill-opacity="1"><g transform="translate(251.414859, 99.496071)"><g><path d="M 3.578125 0 L 3.578125 -35.453125 L 18.828125 -35.453125 L 18.828125 0 Z M 11.40625 -40.90625 C 9.070312 -40.90625 7.085938 -41.722656 5.453125 -43.359375 C 3.828125 -45.003906 3.015625 -46.960938 3.015625 -49.234375 C 3.015625 -51.503906 3.828125 -53.472656 5.453125 -55.140625 C 7.085938 -56.816406 9.070312 -57.65625 11.40625 -57.65625 C 12.925781 -57.65625 14.316406 -57.269531 15.578125 -56.5 C 16.847656 -55.738281 17.875 -54.722656 18.65625 -53.453125 C 19.4375 -52.191406 19.828125 -50.785156 19.828125 -49.234375 C 19.828125 -46.960938 19 -45.003906 17.34375 -43.359375 C 15.6875 -41.722656 13.707031 -40.90625 11.40625 -40.90625 Z M 11.40625 -40.90625 "/></g></g></g><g fill="#ffffff" fill-opacity="1"><g transform="translate(275.080928, 99.496071)"><g><path d="M 0.265625 -35.453125 L 5.953125 -35.453125 L 5.953125 -50.015625 L 21.078125 -50.015625 L 21.078125 -35.453125 L 28.59375 -35.453125 L 28.59375 -22.96875 L 21.078125 -22.96875 L 21.078125 -16.0625 C 21.078125 -14.820312 21.238281 -13.765625 21.5625 -12.890625 C 21.894531 -12.015625 22.609375 -11.578125 23.703125 -11.578125 C 24.367188 -11.578125 24.960938 -11.726562 25.484375 -12.03125 C 26.003906 -12.332031 26.320312 -12.539062 26.4375 -12.65625 L 31.53125 -1.859375 C 31.300781 -1.679688 30.601562 -1.351562 29.4375 -0.875 C 28.269531 -0.40625 26.800781 0.0234375 25.03125 0.421875 C 23.257812 0.828125 21.289062 1.03125 19.125 1.03125 C 15.300781 1.03125 12.148438 -0.0234375 9.671875 -2.140625 C 7.191406 -4.253906 5.953125 -7.515625 5.953125 -11.921875 L 5.953125 -22.96875 L 0.265625 -22.96875 Z M 0.265625 -35.453125 "/></g></g></g><g clip-path="url(#2cd601f786)"><path fill="#49aa27" d="M 62.566406 110.253906 L 16.34375 110.253906 C 7.394531 110.253906 0.140625 103 0.140625 94.050781 L 0.140625 47.828125 C 0.140625 38.882812 7.394531 31.628906 16.34375 31.628906 L 62.566406 31.628906 C 71.511719 31.628906 78.765625 38.882812 78.765625 47.828125 L 78.765625 94.050781 C 78.765625 103 71.511719 110.253906 62.566406 110.253906 Z M 62.566406 110.253906 " fill-opacity="1" fill-rule="nonzero"/></g><g clip-path="url(#11fb348f6e)"><path stroke-linecap="butt" transform="matrix(0.209059, 0, 0, 0.209059, 0.140623, 31.627321)" fill="none" stroke-linejoin="miter" d="M 129.299867 68.20765 L 85.801302 148.702416 L 42.396163 229.103757 C 38.491008 236.204039 43.29304 245.1915 50.99124 245.1915 L 109.998313 245.1915 L 109.998313 301.601365 C 109.998313 307.898193 115.099305 313.092609 121.508243 313.092609 L 153.795837 313.092609 C 160.092665 313.092609 165.305766 307.991618 165.305766 301.601365 L 165.305766 245.1915 L 148.003502 245.1915 C 140.305303 245.1915 135.50327 236.204039 139.408425 229.103757 L 182.79488 148.702416 L 186.4945 141.901094 L 146.695556 68.20765 C 142.696976 61.107368 133.092912 61.107368 129.299867 68.20765 Z M 129.299867 68.20765 " stroke="#f3f6f6" stroke-width="10" stroke-opacity="1" stroke-miterlimit="10"/></g><g clip-path="url(#a34a75d51f)"><path stroke-linecap="butt" transform="matrix(0.209059, 0, 0, 0.209059, 0.140623, 31.627321)" fill="none" stroke-linejoin="miter" d="M 330.293878 229.197182 L 286.907423 148.795841 L 243.408859 68.301074 C 239.597129 61.200793 229.993065 61.200793 226.106595 68.301074 L 186.401075 141.994519 L 190.100695 148.795841 L 233.505835 229.197182 C 237.392305 236.297463 232.608958 245.303609 224.892073 245.303609 L 206.991891 245.303609 L 206.991891 301.69479 C 206.991891 307.991618 212.092882 313.204719 218.50182 313.204719 L 250.808099 313.204719 C 257.104928 313.204719 262.299344 308.103728 262.299344 301.69479 L 262.299344 245.303609 L 321.904336 245.303609 C 329.397001 245.303609 334.199033 236.297463 330.293878 229.197182 Z M 330.293878 229.197182 " stroke="#f3f6f6" stroke-width="10" stroke-opacity="1" stroke-miterlimit="10"/></g><g clip-path="url(#e98a4c79bf)"><g transform="matrix(1, 0, 0, 1, 5, 40)"><g clip-path="url(#bf7d5f0517)"><g clip-path="url(#8d3134376a)"><path fill="#49aa27" d="M 0.441406 0.320312 L 67.628906 0.320312 L 67.628906 64.257812 L 0.441406 64.257812 Z M 0.441406 0.320312 " fill-opacity="1" fill-rule="nonzero"/></g></g></g></g><g clip-path="url(#15c2299ded)"><path fill="#ffffff" d="M 54.523438 77.890625 L 54.523438 53.089844 L 38.992188 42.34375 L 23.460938 53.089844 L 23.460938 77.890625 L 37.824219 87.832031 L 37.824219 97.210938 L 31.097656 97.210938 L 31.097656 99.546875 L 46.878906 99.546875 L 46.878906 97.210938 L 40.152344 97.210938 L 40.152344 87.832031 Z M 40.160156 84.992188 L 40.160156 78.824219 L 52.1875 69.867188 L 52.1875 76.667969 Z M 40.160156 45.992188 L 48.390625 51.6875 L 40.160156 57.8125 Z M 52.1875 66.953125 L 40.160156 75.910156 L 40.160156 60.726562 L 50.417969 53.089844 L 52.1875 54.316406 Z M 37.828125 45.992188 L 37.828125 66.863281 L 25.796875 57.90625 L 25.796875 54.3125 Z M 25.796875 76.667969 L 25.796875 60.820312 L 37.828125 69.777344 L 37.828125 84.996094 Z M 25.796875 76.667969 " fill-opacity="1" fill-rule="nonzero"/></g></svg>